HIERARCHY
ROOT Hips
{
	OFFSET 0.00 0.00 0.00
	CHANNELS 6 Xposition Yposition Zposition Xrotation Yrotation Zrotation
	JOINT LeftUpLeg
	{
		OFFSET 2.83210 0.00000 0.00000
		CHANNELS 3 Xrotation Yrotation Zrotation
		JOINT LeftLeg
		{
			OFFSET 0.00000 -16.27150 0.00000
			CHANNELS 3 Xrotation Yrotation Zrotation
			JOINT LeftFoot
			{
				OFFSET 0.00000 -14.95190 0.00000
				CHANNELS 3 Xrotation Yrotation Zrotation
				JOINT LeftToeBase
				{
					OFFSET 0.00000 -1.07991 4.03030
					CHANNELS 3 Xrotation Yrotation Zrotation
					End Site
					{
						OFFSET 0.00000 0.00000 2.95275
					}
				}
			}
		}
	}
	JOINT RightUpLeg
	{
		OFFSET -2.83210 0.00000 0.00000
		CHANNELS 3 Xrotation Yrotation Zrotation
		JOINT RightLeg
		{
			OFFSET 0.00000 -16.27150 0.00000
			CHANNELS 3 Xrotation Yrotation Zrotation
			JOINT RightFoot
			{
				OFFSET 0.00000 -14.95190 0.00000
				CHANNELS 3 Xrotation Yrotation Zrotation
				JOINT RightToeBase
				{
					OFFSET 0.00000 -1.07991 4.03030
					CHANNELS 3 Xrotation Yrotation Zrotation
					End Site
					{
						OFFSET 0.00000 0.00000 2.95275
					}
				}
			}
		}
	}
	JOINT Spine
	{
		OFFSET 0.00000 0.03937 0.00000
		CHANNELS 3 Xrotation Yrotation Zrotation
		JOINT Spine1
		{
			OFFSET 0.00000 8.01054 0.00000
			CHANNELS 3 Xrotation Yrotation Zrotation
			JOINT Neck
			{
				OFFSET 0.00000 8.21888 0.00000
				CHANNELS 3 Xrotation Yrotation Zrotation
				JOINT Head
				{
					OFFSET 0.00000 3.25664 0.00000
					CHANNELS 3 Xrotation Yrotation Zrotation
					End Site
					{
						OFFSET 0.00000 4.52755 0.00000
					}
				}
			}
			JOINT LeftShoulder
			{
				OFFSET 0.00000 8.21888 0.00000
				CHANNELS 3 Xrotation Yrotation Zrotation
				JOINT LeftArm
				{
					OFFSET 6.52904 -0.00002 0.00000
					CHANNELS 3 Xrotation Yrotation Zrotation
					JOINT LeftForeArm
					{
						OFFSET 10.44840 -0.00004 0.00000
						CHANNELS 3 Xrotation Yrotation Zrotation
						JOINT LeftHand
						{
							OFFSET 8.94727 -0.00003 0.00000
							CHANNELS 3 Xrotation Yrotation Zrotation
							JOINT LeftHandThumb
							{
								OFFSET 0.00000 0.00000 0.00000
								CHANNELS 3 Xrotation Yrotation Zrotation
								End Site
								{
									OFFSET 0.00000 0.00000 3.93700
								}
							}
							JOINT L_Wrist_End
							{
								OFFSET 3.93700 -0.00001 0.00000
								CHANNELS 3 Xrotation Yrotation Zrotation
							}
						}
					}
				}
			}
			JOINT RightShoulder
			{
				OFFSET 0.00000 8.21888 0.00000
				CHANNELS 3 Xrotation Yrotation Zrotation
				JOINT RightArm
				{
					OFFSET -6.52904 -0.00002 0.00000
					CHANNELS 3 Xrotation Yrotation Zrotation
					JOINT RightForeArm
					{
						OFFSET -10.44840 -0.00004 0.00000
						CHANNELS 3 Xrotation Yrotation Zrotation
						JOINT RightHand
						{
							OFFSET -8.94727 -0.00003 0.00000
							CHANNELS 3 Xrotation Yrotation Zrotation
							JOINT RightHandThumb
							{
								OFFSET 0.00000 0.00000 0.00000
								CHANNELS 3 Xrotation Yrotation Zrotation
								End Site
								{
									OFFSET 0.00000 0.00000 3.93700
								}
							}
							JOINT R_Wrist_End
							{
								OFFSET -5.39369 -0.00002 0.00000
								CHANNELS 3 Xrotation Yrotation Zrotation
							}
						}
					}
				}
			}
		}
	}
}
MOTION
Frames: 13
Frame Time: 0.008333
 14.0098 32.6535 -9.7940 7.6185 -1.1669 4.3783 -7.8163 27.3659 24.4702 15.0318 -0.0000 0.0000 20.1071 11.9318 -7.3546 -2.6916 0.0000 0.0000 -8.5174 -11.2974 4.1634 16.2914 -0.0000 0.0000 -18.8126 -30.7807 13.2187 20.6639 -0.0000 0.0000 -6.8619 8.3857 -5.5481 4.4786 -8.4427 -9.0138 -18.7341 4.1897 0.5720 -49.2123 -55.0267 -36.7260 8.0243 21.7210 4.4535 -48.2207 -2.5067 -23.2223 -0.0002 -41.7248 -0.0001 47.4059 2.8747 32.9980 0.0000 0.0000 -0.0000 0.0000 0.0000 -0.0000 7.5035 -18.1754 -10.0823 -59.2625 33.6419 7.9352 -0.0001 20.9750 0.0000 32.1057 -10.1370 -64.3878 -0.0000 -0.0000 -0.0000 -0.0000 -0.0000 -0.0000
 14.0157 32.7049 -9.7998 7.7200 -1.5429 4.4776 -7.3970 27.7168 24.1554 14.5494 0.0000 -0.0000 20.6041 11.6482 -7.9253 -2.7832 -0.0000 -0.0000 -8.2385 -10.9794 4.1407 15.4851 -0.0000 -0.0000 -18.1737 -30.6951 13.6200 20.5645 -0.0000 0.0000 -6.9728 8.2117 -5.4950 4.3159 -8.6408 -8.9375 -18.8266 4.1741 0.6370 -49.2585 -54.9551 -36.8370 8.2135 21.7069 4.6621 -47.9927 -2.3556 -23.1330 -0.0002 -40.8619 -0.0001 47.4419 2.7710 33.1561 0.0000 0.0000 0.0000 0.0000 0.0000 0.0000 7.3629 -18.1678 -10.1424 -59.5951 34.3270 8.4126 -0.0001 20.7197 0.0000 32.2844 -10.2343 -64.3789 0.0000 0.0000 0.0000 0.0000 0.0000 0.0000
 14.0582 32.7599 -9.7876 7.6036 -2.1922 4.9483 -6.4710 28.6150 23.3545 13.8349 0.0000 0.0000 21.2188 11.6069 -8.0575 -2.5962 -0.0000 0.0000 -7.7695 -10.6579 3.6549 14.7023 -0.0000 0.0000 -17.7275 -30.3105 14.2718 20.9066 0.0000 -0.0000 -6.9003 8.1816 -5.6093 4.2487 -8.6323 -8.9484 -18.9249 4.0566 0.6627 -49.4729 -54.8135 -37.0642 7.8897 21.6250 4.8367 -47.1577 -2.4447 -22.9117 -0.0002 -40.0185 -0.0001 47.2660 2.7038 33.1145 0.0000 0.0000 -0.0000 0.0000 0.0000 -0.0000 7.4493 -18.2910 -10.0192 -59.8579 35.1750 8.5620 -0.0001 20.5911 0.0000 32.0018 -9.9624 -64.1918 -0.0000 -0.0000 -0.0000 -0.0000 -0.0000 -0.0000
 14.0840 32.8120 -9.7786 7.5645 -2.7595 5.2574 -5.6894 29.3128 22.7144 13.0777 -0.0000 0.0000 22.2950 11.9008 -8.3984 -2.2180 -0.0000 -0.0000 -7.3344 -10.4420 3.3546 13.8768 -0.0000 -0.0000 -17.1160 -29.9611 14.9126 20.8850 0.0000 0.0000 -6.9100 8.0518 -5.6469 4.1262 -8.7494 -8.9160 -19.0449 4.0127 0.7145 -49.5174 -54.6771 -37.1899 7.9847 21.6188 5.0131 -46.7787 -2.3141 -22.7663 -0.0002 -39.1659 -0.0001 47.2445 2.5199 33.2122 0.0000 0.0000 0.0000 0.0000 0.0000 0.0000 7.3820 -18.3132 -10.0516 -60.1993 35.9772 8.9841 -0.0001 20.3491 0.0000 31.9854 -9.8514 -64.0606 0.0000 -0.0000 0.0000 0.0000 -0.0000 0.0000
 14.1094 32.8641 -9.7723 7.5467 -3.3821 5.5535 -4.9258 30.0703 22.0762 12.2442 -0.0000 0.0000 23.8199 12.4539 -8.7279 -1.4321 0.0000 -0.0000 -6.9101 -10.1882 3.0771 13.0493 -0.0000 0.0000 -16.5276 -29.6284 15.3873 20.9399 -0.0000 -0.0000 -6.9436 7.9473 -5.6750 4.0278 -8.8441 -8.8535 -19.1388 3.9710 0.7642 -49.6562 -54.5138 -37.3654 7.9004 21.5970 5.2227 -46.2529 -2.2394 -22.6148 -0.0002 -38.2778 -0.0001 47.1376 2.3855 33.3215 -0.0000 0.0000 0.0000 -0.0000 0.0000 0.0000 7.3730 -18.3458 -9.9982 -60.4263 36.9065 9.2257 -0.0001 20.0610 0.0000 31.8440 -9.8159 -63.8828 0.0000 -0.0000 -0.0000 0.0000 -0.0000 -0.0000
 14.1379 32.9145 -9.7644 7.5052 -4.0387 5.8794 -4.0362 30.7765 21.3358 11.3128 -0.0000 0.0000 25.7535 13.1854 -9.2181 -0.2403 0.0000 -0.0000 -6.4747 -10.1030 2.7453 12.2421 -0.0000 0.0000 -15.9993 -29.2318 16.0165 21.1391 0.0000 0.0000 -6.9883 7.8359 -5.7193 3.9735 -8.9420 -8.7773 -19.1673 3.9408 0.6968 -49.7318 -54.4246 -37.3699 7.8264 21.5536 5.4600 -45.7436 -2.0424 -22.4764 -0.0002 -37.4653 -0.0001 46.9413 1.9189 33.3260 0.0000 0.0000 -0.0000 0.0000 0.0000 -0.0000 7.3832 -18.3598 -9.9551 -60.7142 37.8630 9.4857 -0.0001 19.7453 0.0000 31.7464 -9.8473 -63.7206 0.0000 -0.0000 0.0000 0.0000 -0.0000 0.0000
 14.1683 32.9637 -9.7486 7.4411 -4.7157 6.2215 -3.0507 31.4242 20.5239 10.3511 0.0000 0.0000 27.8582 13.9670 -9.7499 1.5736 -0.0000 0.0000 -6.0097 -10.1329 2.3743 11.4608 -0.0000 0.0000 -15.4559 -28.7410 16.7812 21.1227 -0.0000 -0.0000 -7.0168 7.7109 -5.7859 3.9186 -9.0434 -8.6804 -19.3608 3.9151 0.8636 -49.8781 -54.1074 -37.6934 7.7662 21.5454 5.6821 -45.3034 -1.8102 -22.3479 -0.0002 -36.6215 -0.0001 46.8341 2.0270 33.6651 0.0000 -0.0000 0.0000 0.0000 -0.0000 0.0000 7.3823 -18.3744 -9.9017 -60.9242 38.8874 9.6930 -0.0001 19.3728 0.0000 31.6546 -9.8008 -63.6707 -0.0000 -0.0000 -0.0000 -0.0000 -0.0000 -0.0000
 14.2004 33.0092 -9.7311 7.3520 -5.4257 6.5671 -2.0038 32.0920 19.6797 9.3164 -0.0000 -0.0000 30.2019 14.5048 -9.9752 3.0233 0.0000 -0.0000 -5.5103 -10.2980 1.9885 10.6644 0.0000 0.0000 -15.0012 -28.2264 17.6439 21.3679 0.0000 -0.0000 -7.0315 7.5876 -5.8451 3.8557 -9.1409 -8.5744 -19.5605 3.8596 0.9579 -49.8374 -53.8236 -37.8673 7.6748 21.5344 5.9209 -44.8444 -1.5169 -22.2438 -0.0002 -35.8667 -0.0000 46.5498 1.8420 33.7761 -0.0000 -0.0000 0.0000 -0.0000 -0.0000 0.0000 7.3811 -18.4009 -9.8712 -61.2290 39.9443 9.9978 -0.0001 19.0094 0.0000 31.4639 -9.7022 -63.5871 -0.0000 -0.0000 0.0000 -0.0000 -0.0000 0.0000
 14.2424 33.0556 -9.7057 7.2432 -6.1551 6.9773 -0.8170 32.7363 18.6704 8.2422 -0.0000 0.0000 32.5281 14.7315 -9.1599 3.7917 -0.0000 0.0000 -4.9991 -10.7386 1.4861 9.9088 0.0000 -0.0000 -14.5129 -27.3548 18.4351 21.0976 0.0000 0.0000 -7.0831 7.4656 -5.9438 3.9009 -9.2273 -8.4289 -19.8525 3.7588 1.0071 -49.7174 -53.5025 -37.9905 7.4989 21.4299 6.1143 -44.4040 -1.0598 -22.0819 -0.0001 -35.2286 -0.0000 46.2184 1.9111 33.8142 -0.0000 0.0000 -0.0000 -0.0000 0.0000 -0.0000 7.3172 -18.4881 -9.8285 -61.6396 41.0869 10.3906 -0.0001 18.6693 0.0000 31.1594 -9.7119 -63.4916 0.0000 0.0000 0.0000 0.0000 0.0000 0.0000
 14.2845 33.0996 -9.6766 7.1076 -6.8859 7.3467 0.3704 33.4190 17.6821 7.1270 -0.0000 0.0000 35.0643 14.7481 -7.6303 3.7321 0.0000 -0.0000 -4.4567 -11.2636 1.0029 9.1603 -0.0000 0.0000 -14.0333 -26.4640 19.8574 21.3423 -0.0000 0.0000 -7.0031 7.3136 -6.0097 3.7387 -9.3325 -8.3236 -20.1813 3.6742 1.1852 -49.5543 -53.1040 -38.2364 7.5285 21.5171 6.2005 -44.1908 -0.8093 -21.9809 -0.0001 -34.4683 -0.0000 46.0120 1.8488 33.9181 0.0000 0.0000 -0.0000 0.0000 0.0000 -0.0000 7.1959 -18.4696 -9.8738 -62.1396 42.0382 10.9508 -0.0001 18.4485 0.0000 31.0293 -9.6802 -63.4395 -0.0000 -0.0000 -0.0000 -0.0000 -0.0000 -0.0000
 14.3260 33.1408 -9.6519 6.9953 -7.5956 7.6770 1.4561 34.0924 16.7564 6.1035 0.0000 0.0000 37.6461 14.6528 -6.5758 4.2905 0.0000 0.0000 -3.9659 -11.8711 0.5604 8.4323 -0.0000 0.0000 -13.5685 -25.5077 20.9836 21.0394 -0.0000 0.0000 -6.9524 7.1642 -6.0456 3.6037 -9.4447 -8.1972 -20.3917 3.6029 1.2961 -49.5340 -52.7695 -38.4648 7.4279 21.5102 6.3469 -43.8781 -0.4636 -21.8531 -0.0001 -33.7646 -0.0000 45.7426 1.7471 33.9169 0.0000 -0.0000 0.0000 0.0000 -0.0000 0.0000 7.1076 -18.4678 -9.8958 -62.8064 42.9645 11.5930 -0.0001 18.2464 0.0000 30.8955 -9.5709 -63.3623 0.0000 0.0000 -0.0000 0.0000 0.0000 -0.0000
 14.3689 33.1809 -9.6301 6.9057 -8.2804 7.9886 2.4620 34.7032 15.8572 5.2441 -0.0000 -0.0000 40.0743 14.5595 -6.4217 4.6059 -0.0000 0.0000 -3.5171 -12.4340 0.1442 7.7173 0.0000 -0.0000 -13.0982 -24.5807 22.0463 20.8571 -0.0000 -0.0000 -6.9119 7.0003 -6.0548 3.4721 -9.5802 -8.0812 -20.7698 3.4762 1.4589 -49.3502 -52.3696 -38.7106 7.3739 21.5746 6.4064 -43.6450 -0.2634 -21.7158 -0.0001 -32.9863 -0.0000 45.4495 1.6505 33.8812 0.0000 -0.0000 0.0000 0.0000 -0.0000 0.0000 6.9971 -18.4296 -9.9026 -63.5435 43.8358 12.2681 -0.0001 18.1201 0.0000 30.7347 -9.4787 -63.2505 0.0000 0.0000 0.0000 0.0000 0.0000 0.0000
 14.4113 33.2177 -9.6136 6.8597 -8.9520 8.2911 3.3710 35.2546 14.9695 4.5057 -0.0000 -0.0000 42.4011 14.6382 -6.8388 5.4291 0.0000 -0.0000 -3.1550 -12.9768 -0.2443 7.0186 0.0000 0.0000 -12.6882 -23.8426 23.0058 20.2472 -0.0000 -0.0000 -6.8835 6.8524 -6.0577 3.3276 -9.7053 -7.9673 -21.0411 3.3857 1.6350 -49.4155 -51.9948 -39.0694 7.2966 21.6080 6.4587 -43.3606 -0.1450 -21.5429 -0.0001 -32.1290 -0.0000 45.2018 1.4642 33.9092 0.0000 0.0000 0.0000 0.0000 0.0000 0.0000 6.9412 -18.3644 -9.8931 -64.3279 44.6226 12.8941 -0.0001 17.9797 0.0000 30.6341 -9.2626 -63.1721 -0.0000 0.0000 0.0000 -0.0000 0.0000 0.0000
